<?xml version="1.0" encoding="utf-8" standalone="no"?>
<!DOCTYPE svg PUBLIC "-//W3C//DTD SVG 1.1//EN"
  "http://www.w3.org/Graphics/SVG/1.1/DTD/svg11.dtd">
<svg xmlns:xlink="http://www.w3.org/1999/xlink" width="460.8pt" height="345.6pt" viewBox="0 0 460.8 345.6" xmlns="http://www.w3.org/2000/svg" version="1.1">
 <metadata>
  <rdf:RDF xmlns:dc="http://purl.org/dc/elements/1.1/" xmlns:cc="http://creativecommons.org/ns#" xmlns:rdf="http://www.w3.org/1999/02/22-rdf-syntax-ns#">
   <cc:Work>
    <dc:type rdf:resource="http://purl.org/dc/dcmitype/StillImage"/>
    <dc:date>2022-03-03T21:45:04.620910</dc:date>
    <dc:format>image/svg+xml</dc:format>
    <dc:creator>
     <cc:Agent>
      <dc:title>Matplotlib v3.5.1, https://matplotlib.org/</dc:title>
     </cc:Agent>
    </dc:creator>
   </cc:Work>
  </rdf:RDF>
 </metadata>
 <defs>
  <style type="text/css">*{stroke-linejoin: round; stroke-linecap: butt}</style>
 </defs>
 <g id="figure_1">
  <g id="patch_1">
   <path d="M 0 345.6
L 460.8 345.6
L 460.8 0
L 0 0
z
" style="fill: #ffffff"/>
  </g>
  <g id="axes_1">
   <g id="patch_2">
    <path d="M 57.6 307.584
L 414.72 307.584
L 414.72 41.472
L 57.6 41.472
z
" style="fill: #ffffff"/>
   </g>
   <g id="matplotlib.axis_1">
    <g id="xtick_1">
     <g id="line2d_1">
      <path d="M 57.6 307.584
L 57.6 41.472
" clip-path="url(#p52f23a635f)" style="fill: none; stroke: #b0b0b0; stroke-width: 0.8; stroke-linecap: square"/>
     </g>
     <g id="line2d_2">
      <defs>
       <path id="m0ed64b63f1" d="M 0 0
L 0 3.5
" style="stroke: #000000; stroke-width: 0.8"/>
      </defs>
      <g>
       <use xlink:href="#m0ed64b63f1" x="57.6" y="307.584" style="stroke: #000000; stroke-width: 0.8"/>
      </g>
     </g>
     <g id="text_1">
      <!-- 0 -->
      <g transform="translate(54.41875 322.182437)scale(0.1 -0.1)">
       <defs>
        <path id="DejaVuSans-30" d="M 2034 4250
Q 1547 4250 1301 3770
Q 1056 3291 1056 2328
Q 1056 1369 1301 889
Q 1547 409 2034 409
Q 2525 409 2770 889
Q 3016 1369 3016 2328
Q 3016 3291 2770 3770
Q 2525 4250 2034 4250
z
M 2034 4750
Q 2819 4750 3233 4129
Q 3647 3509 3647 2328
Q 3647 1150 3233 529
Q 2819 -91 2034 -91
Q 1250 -91 836 529
Q 422 1150 422 2328
Q 422 3509 836 4129
Q 1250 4750 2034 4750
z
" transform="scale(0.015625)"/>
       </defs>
       <use xlink:href="#DejaVuSans-30"/>
      </g>
     </g>
    </g>
    <g id="xtick_2">
     <g id="line2d_3">
      <path d="M 229.060465 307.584
L 229.060465 41.472
" clip-path="url(#p52f23a635f)" style="fill: none; stroke: #b0b0b0; stroke-width: 0.8; stroke-linecap: square"/>
     </g>
     <g id="line2d_4">
      <g>
       <use xlink:href="#m0ed64b63f1" x="229.060465" y="307.584" style="stroke: #000000; stroke-width: 0.8"/>
      </g>
     </g>
     <g id="text_2">
      <!-- 64 -->
      <g transform="translate(222.697965 322.182437)scale(0.1 -0.1)">
       <defs>
        <path id="DejaVuSans-36" d="M 2113 2584
Q 1688 2584 1439 2293
Q 1191 2003 1191 1497
Q 1191 994 1439 701
Q 1688 409 2113 409
Q 2538 409 2786 701
Q 3034 994 3034 1497
Q 3034 2003 2786 2293
Q 2538 2584 2113 2584
z
M 3366 4563
L 3366 3988
Q 3128 4100 2886 4159
Q 2644 4219 2406 4219
Q 1781 4219 1451 3797
Q 1122 3375 1075 2522
Q 1259 2794 1537 2939
Q 1816 3084 2150 3084
Q 2853 3084 3261 2657
Q 3669 2231 3669 1497
Q 3669 778 3244 343
Q 2819 -91 2113 -91
Q 1303 -91 875 529
Q 447 1150 447 2328
Q 447 3434 972 4092
Q 1497 4750 2381 4750
Q 2619 4750 2861 4703
Q 3103 4656 3366 4563
z
" transform="scale(0.015625)"/>
        <path id="DejaVuSans-34" d="M 2419 4116
L 825 1625
L 2419 1625
L 2419 4116
z
M 2253 4666
L 3047 4666
L 3047 1625
L 3713 1625
L 3713 1100
L 3047 1100
L 3047 0
L 2419 0
L 2419 1100
L 313 1100
L 313 1709
L 2253 4666
z
" transform="scale(0.015625)"/>
       </defs>
       <use xlink:href="#DejaVuSans-36"/>
       <use xlink:href="#DejaVuSans-34" x="63.623047"/>
      </g>
     </g>
    </g>
    <g id="xtick_3">
     <g id="line2d_5">
      <path d="M 400.52093 307.584
L 400.52093 41.472
" clip-path="url(#p52f23a635f)" style="fill: none; stroke: #b0b0b0; stroke-width: 0.8; stroke-linecap: square"/>
     </g>
     <g id="line2d_6">
      <g>
       <use xlink:href="#m0ed64b63f1" x="400.52093" y="307.584" style="stroke: #000000; stroke-width: 0.8"/>
      </g>
     </g>
     <g id="text_3">
      <!-- 128 -->
      <g transform="translate(390.97718 322.182437)scale(0.1 -0.1)">
       <defs>
        <path id="DejaVuSans-31" d="M 794 531
L 1825 531
L 1825 4091
L 703 3866
L 703 4441
L 1819 4666
L 2450 4666
L 2450 531
L 3481 531
L 3481 0
L 794 0
L 794 531
z
" transform="scale(0.015625)"/>
        <path id="DejaVuSans-32" d="M 1228 531
L 3431 531
L 3431 0
L 469 0
L 469 531
Q 828 903 1448 1529
Q 2069 2156 2228 2338
Q 2531 2678 2651 2914
Q 2772 3150 2772 3378
Q 2772 3750 2511 3984
Q 2250 4219 1831 4219
Q 1534 4219 1204 4116
Q 875 4013 500 3803
L 500 4441
Q 881 4594 1212 4672
Q 1544 4750 1819 4750
Q 2544 4750 2975 4387
Q 3406 4025 3406 3419
Q 3406 3131 3298 2873
Q 3191 2616 2906 2266
Q 2828 2175 2409 1742
Q 1991 1309 1228 531
z
" transform="scale(0.015625)"/>
        <path id="DejaVuSans-38" d="M 2034 2216
Q 1584 2216 1326 1975
Q 1069 1734 1069 1313
Q 1069 891 1326 650
Q 1584 409 2034 409
Q 2484 409 2743 651
Q 3003 894 3003 1313
Q 3003 1734 2745 1975
Q 2488 2216 2034 2216
z
M 1403 2484
Q 997 2584 770 2862
Q 544 3141 544 3541
Q 544 4100 942 4425
Q 1341 4750 2034 4750
Q 2731 4750 3128 4425
Q 3525 4100 3525 3541
Q 3525 3141 3298 2862
Q 3072 2584 2669 2484
Q 3125 2378 3379 2068
Q 3634 1759 3634 1313
Q 3634 634 3220 271
Q 2806 -91 2034 -91
Q 1263 -91 848 271
Q 434 634 434 1313
Q 434 1759 690 2068
Q 947 2378 1403 2484
z
M 1172 3481
Q 1172 3119 1398 2916
Q 1625 2713 2034 2713
Q 2441 2713 2670 2916
Q 2900 3119 2900 3481
Q 2900 3844 2670 4047
Q 2441 4250 2034 4250
Q 1625 4250 1398 4047
Q 1172 3844 1172 3481
z
" transform="scale(0.015625)"/>
       </defs>
       <use xlink:href="#DejaVuSans-31"/>
       <use xlink:href="#DejaVuSans-32" x="63.623047"/>
       <use xlink:href="#DejaVuSans-38" x="127.246094"/>
      </g>
     </g>
    </g>
    <g id="text_4">
     <!-- string length [in characters] -->
     <g transform="translate(166.095937 335.860562)scale(0.1 -0.1)">
      <defs>
       <path id="DejaVuSans-73" d="M 2834 3397
L 2834 2853
Q 2591 2978 2328 3040
Q 2066 3103 1784 3103
Q 1356 3103 1142 2972
Q 928 2841 928 2578
Q 928 2378 1081 2264
Q 1234 2150 1697 2047
L 1894 2003
Q 2506 1872 2764 1633
Q 3022 1394 3022 966
Q 3022 478 2636 193
Q 2250 -91 1575 -91
Q 1294 -91 989 -36
Q 684 19 347 128
L 347 722
Q 666 556 975 473
Q 1284 391 1588 391
Q 1994 391 2212 530
Q 2431 669 2431 922
Q 2431 1156 2273 1281
Q 2116 1406 1581 1522
L 1381 1569
Q 847 1681 609 1914
Q 372 2147 372 2553
Q 372 3047 722 3315
Q 1072 3584 1716 3584
Q 2034 3584 2315 3537
Q 2597 3491 2834 3397
z
" transform="scale(0.015625)"/>
       <path id="DejaVuSans-74" d="M 1172 4494
L 1172 3500
L 2356 3500
L 2356 3053
L 1172 3053
L 1172 1153
Q 1172 725 1289 603
Q 1406 481 1766 481
L 2356 481
L 2356 0
L 1766 0
Q 1100 0 847 248
Q 594 497 594 1153
L 594 3053
L 172 3053
L 172 3500
L 594 3500
L 594 4494
L 1172 4494
z
" transform="scale(0.015625)"/>
       <path id="DejaVuSans-72" d="M 2631 2963
Q 2534 3019 2420 3045
Q 2306 3072 2169 3072
Q 1681 3072 1420 2755
Q 1159 2438 1159 1844
L 1159 0
L 581 0
L 581 3500
L 1159 3500
L 1159 2956
Q 1341 3275 1631 3429
Q 1922 3584 2338 3584
Q 2397 3584 2469 3576
Q 2541 3569 2628 3553
L 2631 2963
z
" transform="scale(0.015625)"/>
       <path id="DejaVuSans-69" d="M 603 3500
L 1178 3500
L 1178 0
L 603 0
L 603 3500
z
M 603 4863
L 1178 4863
L 1178 4134
L 603 4134
L 603 4863
z
" transform="scale(0.015625)"/>
       <path id="DejaVuSans-6e" d="M 3513 2113
L 3513 0
L 2938 0
L 2938 2094
Q 2938 2591 2744 2837
Q 2550 3084 2163 3084
Q 1697 3084 1428 2787
Q 1159 2491 1159 1978
L 1159 0
L 581 0
L 581 3500
L 1159 3500
L 1159 2956
Q 1366 3272 1645 3428
Q 1925 3584 2291 3584
Q 2894 3584 3203 3211
Q 3513 2838 3513 2113
z
" transform="scale(0.015625)"/>
       <path id="DejaVuSans-67" d="M 2906 1791
Q 2906 2416 2648 2759
Q 2391 3103 1925 3103
Q 1463 3103 1205 2759
Q 947 2416 947 1791
Q 947 1169 1205 825
Q 1463 481 1925 481
Q 2391 481 2648 825
Q 2906 1169 2906 1791
z
M 3481 434
Q 3481 -459 3084 -895
Q 2688 -1331 1869 -1331
Q 1566 -1331 1297 -1286
Q 1028 -1241 775 -1147
L 775 -588
Q 1028 -725 1275 -790
Q 1522 -856 1778 -856
Q 2344 -856 2625 -561
Q 2906 -266 2906 331
L 2906 616
Q 2728 306 2450 153
Q 2172 0 1784 0
Q 1141 0 747 490
Q 353 981 353 1791
Q 353 2603 747 3093
Q 1141 3584 1784 3584
Q 2172 3584 2450 3431
Q 2728 3278 2906 2969
L 2906 3500
L 3481 3500
L 3481 434
z
" transform="scale(0.015625)"/>
       <path id="DejaVuSans-20" transform="scale(0.015625)"/>
       <path id="DejaVuSans-6c" d="M 603 4863
L 1178 4863
L 1178 0
L 603 0
L 603 4863
z
" transform="scale(0.015625)"/>
       <path id="DejaVuSans-65" d="M 3597 1894
L 3597 1613
L 953 1613
Q 991 1019 1311 708
Q 1631 397 2203 397
Q 2534 397 2845 478
Q 3156 559 3463 722
L 3463 178
Q 3153 47 2828 -22
Q 2503 -91 2169 -91
Q 1331 -91 842 396
Q 353 884 353 1716
Q 353 2575 817 3079
Q 1281 3584 2069 3584
Q 2775 3584 3186 3129
Q 3597 2675 3597 1894
z
M 3022 2063
Q 3016 2534 2758 2815
Q 2500 3097 2075 3097
Q 1594 3097 1305 2825
Q 1016 2553 972 2059
L 3022 2063
z
" transform="scale(0.015625)"/>
       <path id="DejaVuSans-68" d="M 3513 2113
L 3513 0
L 2938 0
L 2938 2094
Q 2938 2591 2744 2837
Q 2550 3084 2163 3084
Q 1697 3084 1428 2787
Q 1159 2491 1159 1978
L 1159 0
L 581 0
L 581 4863
L 1159 4863
L 1159 2956
Q 1366 3272 1645 3428
Q 1925 3584 2291 3584
Q 2894 3584 3203 3211
Q 3513 2838 3513 2113
z
" transform="scale(0.015625)"/>
       <path id="DejaVuSans-5b" d="M 550 4863
L 1875 4863
L 1875 4416
L 1125 4416
L 1125 -397
L 1875 -397
L 1875 -844
L 550 -844
L 550 4863
z
" transform="scale(0.015625)"/>
       <path id="DejaVuSans-63" d="M 3122 3366
L 3122 2828
Q 2878 2963 2633 3030
Q 2388 3097 2138 3097
Q 1578 3097 1268 2742
Q 959 2388 959 1747
Q 959 1106 1268 751
Q 1578 397 2138 397
Q 2388 397 2633 464
Q 2878 531 3122 666
L 3122 134
Q 2881 22 2623 -34
Q 2366 -91 2075 -91
Q 1284 -91 818 406
Q 353 903 353 1747
Q 353 2603 823 3093
Q 1294 3584 2113 3584
Q 2378 3584 2631 3529
Q 2884 3475 3122 3366
z
" transform="scale(0.015625)"/>
       <path id="DejaVuSans-61" d="M 2194 1759
Q 1497 1759 1228 1600
Q 959 1441 959 1056
Q 959 750 1161 570
Q 1363 391 1709 391
Q 2188 391 2477 730
Q 2766 1069 2766 1631
L 2766 1759
L 2194 1759
z
M 3341 1997
L 3341 0
L 2766 0
L 2766 531
Q 2569 213 2275 61
Q 1981 -91 1556 -91
Q 1019 -91 701 211
Q 384 513 384 1019
Q 384 1609 779 1909
Q 1175 2209 1959 2209
L 2766 2209
L 2766 2266
Q 2766 2663 2505 2880
Q 2244 3097 1772 3097
Q 1472 3097 1187 3025
Q 903 2953 641 2809
L 641 3341
Q 956 3463 1253 3523
Q 1550 3584 1831 3584
Q 2591 3584 2966 3190
Q 3341 2797 3341 1997
z
" transform="scale(0.015625)"/>
       <path id="DejaVuSans-5d" d="M 1947 4863
L 1947 -844
L 622 -844
L 622 -397
L 1369 -397
L 1369 4416
L 622 4416
L 622 4863
L 1947 4863
z
" transform="scale(0.015625)"/>
      </defs>
      <use xlink:href="#DejaVuSans-73"/>
      <use xlink:href="#DejaVuSans-74" x="52.099609"/>
      <use xlink:href="#DejaVuSans-72" x="91.308594"/>
      <use xlink:href="#DejaVuSans-69" x="132.421875"/>
      <use xlink:href="#DejaVuSans-6e" x="160.205078"/>
      <use xlink:href="#DejaVuSans-67" x="223.583984"/>
      <use xlink:href="#DejaVuSans-20" x="287.060547"/>
      <use xlink:href="#DejaVuSans-6c" x="318.847656"/>
      <use xlink:href="#DejaVuSans-65" x="346.630859"/>
      <use xlink:href="#DejaVuSans-6e" x="408.154297"/>
      <use xlink:href="#DejaVuSans-67" x="471.533203"/>
      <use xlink:href="#DejaVuSans-74" x="535.009766"/>
      <use xlink:href="#DejaVuSans-68" x="574.21875"/>
      <use xlink:href="#DejaVuSans-20" x="637.597656"/>
      <use xlink:href="#DejaVuSans-5b" x="669.384766"/>
      <use xlink:href="#DejaVuSans-69" x="708.398438"/>
      <use xlink:href="#DejaVuSans-6e" x="736.181641"/>
      <use xlink:href="#DejaVuSans-20" x="799.560547"/>
      <use xlink:href="#DejaVuSans-63" x="831.347656"/>
      <use xlink:href="#DejaVuSans-68" x="886.328125"/>
      <use xlink:href="#DejaVuSans-61" x="949.707031"/>
      <use xlink:href="#DejaVuSans-72" x="1010.986328"/>
      <use xlink:href="#DejaVuSans-61" x="1052.099609"/>
      <use xlink:href="#DejaVuSans-63" x="1113.378906"/>
      <use xlink:href="#DejaVuSans-74" x="1168.359375"/>
      <use xlink:href="#DejaVuSans-65" x="1207.568359"/>
      <use xlink:href="#DejaVuSans-72" x="1269.091797"/>
      <use xlink:href="#DejaVuSans-73" x="1310.205078"/>
      <use xlink:href="#DejaVuSans-5d" x="1362.304688"/>
     </g>
    </g>
   </g>
   <g id="matplotlib.axis_2">
    <g id="ytick_1">
     <g id="line2d_7">
      <path d="M 57.6 307.584
L 414.72 307.584
" clip-path="url(#p52f23a635f)" style="fill: none; stroke: #b0b0b0; stroke-width: 0.8; stroke-linecap: square"/>
     </g>
     <g id="line2d_8">
      <defs>
       <path id="mcd4ddb947c" d="M 0 0
L -3.5 0
" style="stroke: #000000; stroke-width: 0.8"/>
      </defs>
      <g>
       <use xlink:href="#mcd4ddb947c" x="57.6" y="307.584" style="stroke: #000000; stroke-width: 0.8"/>
      </g>
     </g>
     <g id="text_5">
      <!-- 0 -->
      <g transform="translate(44.2375 311.383219)scale(0.1 -0.1)">
       <use xlink:href="#DejaVuSans-30"/>
      </g>
     </g>
    </g>
    <g id="ytick_2">
     <g id="line2d_9">
      <path d="M 57.6 254.026355
L 414.72 254.026355
" clip-path="url(#p52f23a635f)" style="fill: none; stroke: #b0b0b0; stroke-width: 0.8; stroke-linecap: square"/>
     </g>
     <g id="line2d_10">
      <g>
       <use xlink:href="#mcd4ddb947c" x="57.6" y="254.026355" style="stroke: #000000; stroke-width: 0.8"/>
      </g>
     </g>
     <g id="text_6">
      <!-- 50 -->
      <g transform="translate(37.875 257.825573)scale(0.1 -0.1)">
       <defs>
        <path id="DejaVuSans-35" d="M 691 4666
L 3169 4666
L 3169 4134
L 1269 4134
L 1269 2991
Q 1406 3038 1543 3061
Q 1681 3084 1819 3084
Q 2600 3084 3056 2656
Q 3513 2228 3513 1497
Q 3513 744 3044 326
Q 2575 -91 1722 -91
Q 1428 -91 1123 -41
Q 819 9 494 109
L 494 744
Q 775 591 1075 516
Q 1375 441 1709 441
Q 2250 441 2565 725
Q 2881 1009 2881 1497
Q 2881 1984 2565 2268
Q 2250 2553 1709 2553
Q 1456 2553 1204 2497
Q 953 2441 691 2322
L 691 4666
z
" transform="scale(0.015625)"/>
       </defs>
       <use xlink:href="#DejaVuSans-35"/>
       <use xlink:href="#DejaVuSans-30" x="63.623047"/>
      </g>
     </g>
    </g>
    <g id="ytick_3">
     <g id="line2d_11">
      <path d="M 57.6 200.468709
L 414.72 200.468709
" clip-path="url(#p52f23a635f)" style="fill: none; stroke: #b0b0b0; stroke-width: 0.8; stroke-linecap: square"/>
     </g>
     <g id="line2d_12">
      <g>
       <use xlink:href="#mcd4ddb947c" x="57.6" y="200.468709" style="stroke: #000000; stroke-width: 0.8"/>
      </g>
     </g>
     <g id="text_7">
      <!-- 100 -->
      <g transform="translate(31.5125 204.267928)scale(0.1 -0.1)">
       <use xlink:href="#DejaVuSans-31"/>
       <use xlink:href="#DejaVuSans-30" x="63.623047"/>
       <use xlink:href="#DejaVuSans-30" x="127.246094"/>
      </g>
     </g>
    </g>
    <g id="ytick_4">
     <g id="line2d_13">
      <path d="M 57.6 146.911064
L 414.72 146.911064
" clip-path="url(#p52f23a635f)" style="fill: none; stroke: #b0b0b0; stroke-width: 0.8; stroke-linecap: square"/>
     </g>
     <g id="line2d_14">
      <g>
       <use xlink:href="#mcd4ddb947c" x="57.6" y="146.911064" style="stroke: #000000; stroke-width: 0.8"/>
      </g>
     </g>
     <g id="text_8">
      <!-- 150 -->
      <g transform="translate(31.5125 150.710283)scale(0.1 -0.1)">
       <use xlink:href="#DejaVuSans-31"/>
       <use xlink:href="#DejaVuSans-35" x="63.623047"/>
       <use xlink:href="#DejaVuSans-30" x="127.246094"/>
      </g>
     </g>
    </g>
    <g id="ytick_5">
     <g id="line2d_15">
      <path d="M 57.6 93.353419
L 414.72 93.353419
" clip-path="url(#p52f23a635f)" style="fill: none; stroke: #b0b0b0; stroke-width: 0.8; stroke-linecap: square"/>
     </g>
     <g id="line2d_16">
      <g>
       <use xlink:href="#mcd4ddb947c" x="57.6" y="93.353419" style="stroke: #000000; stroke-width: 0.8"/>
      </g>
     </g>
     <g id="text_9">
      <!-- 200 -->
      <g transform="translate(31.5125 97.152638)scale(0.1 -0.1)">
       <use xlink:href="#DejaVuSans-32"/>
       <use xlink:href="#DejaVuSans-30" x="63.623047"/>
       <use xlink:href="#DejaVuSans-30" x="127.246094"/>
      </g>
     </g>
    </g>
    <g id="text_10">
     <!-- runtime [μs] -->
     <g transform="translate(25.432812 205.493625)rotate(-90)scale(0.1 -0.1)">
      <defs>
       <path id="DejaVuSans-75" d="M 544 1381
L 544 3500
L 1119 3500
L 1119 1403
Q 1119 906 1312 657
Q 1506 409 1894 409
Q 2359 409 2629 706
Q 2900 1003 2900 1516
L 2900 3500
L 3475 3500
L 3475 0
L 2900 0
L 2900 538
Q 2691 219 2414 64
Q 2138 -91 1772 -91
Q 1169 -91 856 284
Q 544 659 544 1381
z
M 1991 3584
L 1991 3584
z
" transform="scale(0.015625)"/>
       <path id="DejaVuSans-6d" d="M 3328 2828
Q 3544 3216 3844 3400
Q 4144 3584 4550 3584
Q 5097 3584 5394 3201
Q 5691 2819 5691 2113
L 5691 0
L 5113 0
L 5113 2094
Q 5113 2597 4934 2840
Q 4756 3084 4391 3084
Q 3944 3084 3684 2787
Q 3425 2491 3425 1978
L 3425 0
L 2847 0
L 2847 2094
Q 2847 2600 2669 2842
Q 2491 3084 2119 3084
Q 1678 3084 1418 2786
Q 1159 2488 1159 1978
L 1159 0
L 581 0
L 581 3500
L 1159 3500
L 1159 2956
Q 1356 3278 1631 3431
Q 1906 3584 2284 3584
Q 2666 3584 2933 3390
Q 3200 3197 3328 2828
z
" transform="scale(0.015625)"/>
       <path id="DejaVuSans-3bc" d="M 544 -1331
L 544 3500
L 1119 3500
L 1119 1325
Q 1119 872 1334 640
Q 1550 409 1972 409
Q 2434 409 2667 671
Q 2900 934 2900 1459
L 2900 3500
L 3475 3500
L 3475 806
Q 3475 619 3529 530
Q 3584 441 3700 441
Q 3728 441 3778 458
Q 3828 475 3916 513
L 3916 50
Q 3788 -22 3673 -56
Q 3559 -91 3450 -91
Q 3234 -91 3106 31
Q 2978 153 2931 403
Q 2775 156 2548 32
Q 2322 -91 2016 -91
Q 1697 -91 1473 31
Q 1250 153 1119 397
L 1119 -1331
L 544 -1331
z
" transform="scale(0.015625)"/>
      </defs>
      <use xlink:href="#DejaVuSans-72"/>
      <use xlink:href="#DejaVuSans-75" x="41.113281"/>
      <use xlink:href="#DejaVuSans-6e" x="104.492188"/>
      <use xlink:href="#DejaVuSans-74" x="167.871094"/>
      <use xlink:href="#DejaVuSans-69" x="207.080078"/>
      <use xlink:href="#DejaVuSans-6d" x="234.863281"/>
      <use xlink:href="#DejaVuSans-65" x="332.275391"/>
      <use xlink:href="#DejaVuSans-20" x="393.798828"/>
      <use xlink:href="#DejaVuSans-5b" x="425.585938"/>
      <use xlink:href="#DejaVuSans-3bc" x="464.599609"/>
      <use xlink:href="#DejaVuSans-73" x="528.222656"/>
      <use xlink:href="#DejaVuSans-5d" x="580.322266"/>
     </g>
    </g>
   </g>
   <g id="line2d_17">
    <path d="M 60.27907 303.524707
L 65.637209 302.630107
L 70.995349 301.28829
L 76.353488 299.479474
L 81.711628 297.529479
L 87.069767 295.554564
L 92.427907 293.229493
L 97.786047 290.830532
L 103.144186 288.425699
L 108.502326 285.947356
L 113.860465 283.163466
L 119.218605 280.369772
L 124.576744 278.086367
L 129.934884 275.648773
L 135.293023 268.642437
L 140.651163 266.014186
L 146.009302 263.589798
L 151.367442 259.585773
L 156.725581 256.992371
L 162.083721 253.144507
L 167.44186 249.598146
L 172.8 246.685338
L 178.15814 243.064691
L 183.516279 239.133966
L 188.874419 236.627795
L 194.232558 232.636659
L 199.590698 229.295136
L 204.948837 225.148616
L 210.306977 222.566661
L 215.665116 218.125746
L 221.023256 213.148233
L 226.381395 209.986719
L 231.739535 206.013156
L 237.097674 202.582865
L 242.455814 197.38548
L 247.813953 193.935374
L 253.172093 190.428432
L 258.530233 184.471905
L 263.888372 178.927154
L 269.246512 175.534015
L 274.604651 170.932524
L 279.962791 164.902118
L 285.32093 160.858975
L 290.67907 157.889468
L 296.037209 152.878636
L 301.395349 148.978813
L 306.753488 143.834527
L 312.111628 138.109326
L 317.469767 132.459201
L 322.827907 129.511158
L 328.186047 123.152416
L 333.544186 120.101498
L 338.902326 113.873806
L 344.260465 109.63989
L 349.618605 104.698246
L 354.976744 98.474988
L 360.334884 93.62461
L 365.693023 88.462462
L 371.051163 82.258944
L 376.409302 77.203358
L 381.767442 72.518573
L 387.125581 66.909313
L 392.483721 61.671423
L 397.84186 54.091453
" clip-path="url(#p52f23a635f)" style="fill: none; stroke: #1f77b4; stroke-width: 1.5; stroke-linecap: square"/>
   </g>
   <g id="line2d_18">
    <path d="M 60.27907 302.187163
L 65.637209 301.486652
L 70.995349 300.798931
L 76.353488 299.842835
L 81.711628 298.954479
L 87.069767 297.962854
L 92.427907 297.189677
L 97.786047 295.374256
L 103.144186 294.423955
L 108.502326 293.018899
L 113.860465 292.763962
L 119.218605 292.075483
L 124.576744 290.653335
L 129.934884 289.723416
L 135.293023 288.050366
L 140.651163 287.377617
L 146.009302 285.742415
L 151.367442 285.682316
L 156.725581 284.487887
L 162.083721 284.125311
L 167.44186 281.04654
L 172.8 281.298063
L 178.15814 279.861988
L 183.516279 278.732175
L 188.874419 277.248366
L 194.232558 275.853041
L 199.590698 275.008566
L 204.948837 274.281041
L 210.306977 272.966235
L 215.665116 271.539595
L 221.023256 270.159022
L 226.381395 268.724117
L 231.739535 266.7798
L 237.097674 266.735931
L 242.455814 265.470869
L 247.813953 263.364399
L 253.172093 263.456907
L 258.530233 261.954492
L 263.888372 258.173205
L 269.246512 258.063963
L 274.604651 256.755363
L 279.962791 254.621932
L 285.32093 253.91526
L 290.67907 252.83912
L 296.037209 249.408799
L 301.395349 249.69796
L 306.753488 248.130193
L 312.111628 246.234832
L 317.469767 244.666971
L 322.827907 244.53163
L 328.186047 242.083593
L 333.544186 241.492035
L 338.902326 238.864915
L 344.260465 237.414095
L 349.618605 235.072418
L 354.976744 235.792826
L 360.334884 232.851222
L 365.693023 231.351539
L 371.051163 229.028533
L 376.409302 226.984255
L 381.767442 226.170898
L 387.125581 223.875491
L 392.483721 222.623477
L 397.84186 221.341121
" clip-path="url(#p52f23a635f)" style="fill: none; stroke: #ff7f0e; stroke-width: 1.5; stroke-linecap: square"/>
   </g>
   <g id="line2d_19">
    <path d="M 60.27907 306.480516
L 65.637209 306.213384
L 70.995349 305.794061
L 76.353488 305.215704
L 81.711628 304.60585
L 87.069767 304.015618
L 92.427907 303.388859
L 97.786047 302.68042
L 103.144186 301.937427
L 108.502326 301.187608
L 113.860465 300.403051
L 119.218605 299.648091
L 124.576744 298.972348
L 129.934884 298.470153
L 135.293023 297.742059
L 140.651163 296.942658
L 146.009302 296.038086
L 151.367442 295.22578
L 156.725581 294.613078
L 162.083721 293.528899
L 167.44186 292.946055
L 172.8 292.143568
L 178.15814 291.590945
L 183.516279 290.498548
L 188.874419 289.548968
L 194.232558 288.465427
L 199.590698 287.691531
L 204.948837 286.939382
L 210.306977 286.111254
L 215.665116 285.003744
L 221.023256 285.018655
L 226.381395 283.289067
L 231.739535 283.03075
L 237.097674 281.748217
L 242.455814 280.814467
L 247.813953 280.246623
L 253.172093 279.224621
L 258.530233 277.62974
L 263.888372 276.434874
L 269.246512 275.284
L 274.604651 275.216793
L 279.962791 273.923453
L 285.32093 273.148468
L 290.67907 271.890553
L 296.037209 271.450063
L 301.395349 268.589508
L 306.753488 269.71411
L 312.111628 267.932903
L 317.469767 267.797903
L 322.827907 266.48645
L 328.186047 265.046008
L 333.544186 264.254809
L 338.902326 263.534493
L 344.260465 262.6097
L 349.618605 261.860628
L 354.976744 259.843382
L 360.334884 259.512051
L 365.693023 259.079258
L 371.051163 257.472669
L 376.409302 256.287996
L 381.767442 255.017527
L 387.125581 254.800235
L 392.483721 253.221339
L 397.84186 252.020115
" clip-path="url(#p52f23a635f)" style="fill: none; stroke: #2ca02c; stroke-width: 1.5; stroke-linecap: square"/>
   </g>
   <g id="patch_3">
    <path d="M 57.6 307.584
L 57.6 41.472
" style="fill: none; stroke: #000000; stroke-width: 0.8; stroke-linejoin: miter; stroke-linecap: square"/>
   </g>
   <g id="patch_4">
    <path d="M 414.72 307.584
L 414.72 41.472
" style="fill: none; stroke: #000000; stroke-width: 0.8; stroke-linejoin: miter; stroke-linecap: square"/>
   </g>
   <g id="patch_5">
    <path d="M 57.6 307.584
L 414.72 307.584
" style="fill: none; stroke: #000000; stroke-width: 0.8; stroke-linejoin: miter; stroke-linecap: square"/>
   </g>
   <g id="patch_6">
    <path d="M 57.6 41.472
L 414.72 41.472
" style="fill: none; stroke: #000000; stroke-width: 0.8; stroke-linejoin: miter; stroke-linecap: square"/>
   </g>
   <g id="text_11">
    <!-- Performance comparison of   -->
    <g transform="translate(148.030312 22.034625)scale(0.12 -0.12)">
     <defs>
      <path id="DejaVuSans-50" d="M 1259 4147
L 1259 2394
L 2053 2394
Q 2494 2394 2734 2622
Q 2975 2850 2975 3272
Q 2975 3691 2734 3919
Q 2494 4147 2053 4147
L 1259 4147
z
M 628 4666
L 2053 4666
Q 2838 4666 3239 4311
Q 3641 3956 3641 3272
Q 3641 2581 3239 2228
Q 2838 1875 2053 1875
L 1259 1875
L 1259 0
L 628 0
L 628 4666
z
" transform="scale(0.015625)"/>
      <path id="DejaVuSans-66" d="M 2375 4863
L 2375 4384
L 1825 4384
Q 1516 4384 1395 4259
Q 1275 4134 1275 3809
L 1275 3500
L 2222 3500
L 2222 3053
L 1275 3053
L 1275 0
L 697 0
L 697 3053
L 147 3053
L 147 3500
L 697 3500
L 697 3744
Q 697 4328 969 4595
Q 1241 4863 1831 4863
L 2375 4863
z
" transform="scale(0.015625)"/>
      <path id="DejaVuSans-6f" d="M 1959 3097
Q 1497 3097 1228 2736
Q 959 2375 959 1747
Q 959 1119 1226 758
Q 1494 397 1959 397
Q 2419 397 2687 759
Q 2956 1122 2956 1747
Q 2956 2369 2687 2733
Q 2419 3097 1959 3097
z
M 1959 3584
Q 2709 3584 3137 3096
Q 3566 2609 3566 1747
Q 3566 888 3137 398
Q 2709 -91 1959 -91
Q 1206 -91 779 398
Q 353 888 353 1747
Q 353 2609 779 3096
Q 1206 3584 1959 3584
z
" transform="scale(0.015625)"/>
      <path id="DejaVuSans-70" d="M 1159 525
L 1159 -1331
L 581 -1331
L 581 3500
L 1159 3500
L 1159 2969
Q 1341 3281 1617 3432
Q 1894 3584 2278 3584
Q 2916 3584 3314 3078
Q 3713 2572 3713 1747
Q 3713 922 3314 415
Q 2916 -91 2278 -91
Q 1894 -91 1617 61
Q 1341 213 1159 525
z
M 3116 1747
Q 3116 2381 2855 2742
Q 2594 3103 2138 3103
Q 1681 3103 1420 2742
Q 1159 2381 1159 1747
Q 1159 1113 1420 752
Q 1681 391 2138 391
Q 2594 391 2855 752
Q 3116 1113 3116 1747
z
" transform="scale(0.015625)"/>
     </defs>
     <use xlink:href="#DejaVuSans-50"/>
     <use xlink:href="#DejaVuSans-65" x="56.677734"/>
     <use xlink:href="#DejaVuSans-72" x="118.201172"/>
     <use xlink:href="#DejaVuSans-66" x="159.314453"/>
     <use xlink:href="#DejaVuSans-6f" x="194.519531"/>
     <use xlink:href="#DejaVuSans-72" x="255.701172"/>
     <use xlink:href="#DejaVuSans-6d" x="295.064453"/>
     <use xlink:href="#DejaVuSans-61" x="392.476562"/>
     <use xlink:href="#DejaVuSans-6e" x="453.755859"/>
     <use xlink:href="#DejaVuSans-63" x="517.134766"/>
     <use xlink:href="#DejaVuSans-65" x="572.115234"/>
     <use xlink:href="#DejaVuSans-20" x="633.638672"/>
     <use xlink:href="#DejaVuSans-63" x="665.425781"/>
     <use xlink:href="#DejaVuSans-6f" x="720.40625"/>
     <use xlink:href="#DejaVuSans-6d" x="781.587891"/>
     <use xlink:href="#DejaVuSans-70" x="879"/>
     <use xlink:href="#DejaVuSans-61" x="942.476562"/>
     <use xlink:href="#DejaVuSans-72" x="1003.755859"/>
     <use xlink:href="#DejaVuSans-69" x="1044.869141"/>
     <use xlink:href="#DejaVuSans-73" x="1072.652344"/>
     <use xlink:href="#DejaVuSans-69" x="1124.751953"/>
     <use xlink:href="#DejaVuSans-6f" x="1152.535156"/>
     <use xlink:href="#DejaVuSans-6e" x="1213.716797"/>
     <use xlink:href="#DejaVuSans-20" x="1277.095703"/>
     <use xlink:href="#DejaVuSans-6f" x="1308.882812"/>
     <use xlink:href="#DejaVuSans-66" x="1370.064453"/>
     <use xlink:href="#DejaVuSans-20" x="1405.269531"/>
     <use xlink:href="#DejaVuSans-20" x="1437.056641"/>
    </g>
    <!-- get_matching_blocks in different implementation -->
    <g transform="translate(88.707188 35.472)scale(0.12 -0.12)">
     <defs>
      <path id="DejaVuSans-5f" d="M 3263 -1063
L 3263 -1509
L -63 -1509
L -63 -1063
L 3263 -1063
z
" transform="scale(0.015625)"/>
      <path id="DejaVuSans-62" d="M 3116 1747
Q 3116 2381 2855 2742
Q 2594 3103 2138 3103
Q 1681 3103 1420 2742
Q 1159 2381 1159 1747
Q 1159 1113 1420 752
Q 1681 391 2138 391
Q 2594 391 2855 752
Q 3116 1113 3116 1747
z
M 1159 2969
Q 1341 3281 1617 3432
Q 1894 3584 2278 3584
Q 2916 3584 3314 3078
Q 3713 2572 3713 1747
Q 3713 922 3314 415
Q 2916 -91 2278 -91
Q 1894 -91 1617 61
Q 1341 213 1159 525
L 1159 0
L 581 0
L 581 4863
L 1159 4863
L 1159 2969
z
" transform="scale(0.015625)"/>
      <path id="DejaVuSans-6b" d="M 581 4863
L 1159 4863
L 1159 1991
L 2875 3500
L 3609 3500
L 1753 1863
L 3688 0
L 2938 0
L 1159 1709
L 1159 0
L 581 0
L 581 4863
z
" transform="scale(0.015625)"/>
      <path id="DejaVuSans-64" d="M 2906 2969
L 2906 4863
L 3481 4863
L 3481 0
L 2906 0
L 2906 525
Q 2725 213 2448 61
Q 2172 -91 1784 -91
Q 1150 -91 751 415
Q 353 922 353 1747
Q 353 2572 751 3078
Q 1150 3584 1784 3584
Q 2172 3584 2448 3432
Q 2725 3281 2906 2969
z
M 947 1747
Q 947 1113 1208 752
Q 1469 391 1925 391
Q 2381 391 2643 752
Q 2906 1113 2906 1747
Q 2906 2381 2643 2742
Q 2381 3103 1925 3103
Q 1469 3103 1208 2742
Q 947 2381 947 1747
z
" transform="scale(0.015625)"/>
     </defs>
     <use xlink:href="#DejaVuSans-67"/>
     <use xlink:href="#DejaVuSans-65" x="63.476562"/>
     <use xlink:href="#DejaVuSans-74" x="125"/>
     <use xlink:href="#DejaVuSans-5f" x="164.208984"/>
     <use xlink:href="#DejaVuSans-6d" x="214.208984"/>
     <use xlink:href="#DejaVuSans-61" x="311.621094"/>
     <use xlink:href="#DejaVuSans-74" x="372.900391"/>
     <use xlink:href="#DejaVuSans-63" x="412.109375"/>
     <use xlink:href="#DejaVuSans-68" x="467.089844"/>
     <use xlink:href="#DejaVuSans-69" x="530.46875"/>
     <use xlink:href="#DejaVuSans-6e" x="558.251953"/>
     <use xlink:href="#DejaVuSans-67" x="621.630859"/>
     <use xlink:href="#DejaVuSans-5f" x="685.107422"/>
     <use xlink:href="#DejaVuSans-62" x="735.107422"/>
     <use xlink:href="#DejaVuSans-6c" x="798.583984"/>
     <use xlink:href="#DejaVuSans-6f" x="826.367188"/>
     <use xlink:href="#DejaVuSans-63" x="887.548828"/>
     <use xlink:href="#DejaVuSans-6b" x="942.529297"/>
     <use xlink:href="#DejaVuSans-73" x="1000.439453"/>
     <use xlink:href="#DejaVuSans-20" x="1052.539062"/>
     <use xlink:href="#DejaVuSans-69" x="1084.326172"/>
     <use xlink:href="#DejaVuSans-6e" x="1112.109375"/>
     <use xlink:href="#DejaVuSans-20" x="1175.488281"/>
     <use xlink:href="#DejaVuSans-64" x="1207.275391"/>
     <use xlink:href="#DejaVuSans-69" x="1270.751953"/>
     <use xlink:href="#DejaVuSans-66" x="1298.535156"/>
     <use xlink:href="#DejaVuSans-66" x="1333.740234"/>
     <use xlink:href="#DejaVuSans-65" x="1368.945312"/>
     <use xlink:href="#DejaVuSans-72" x="1430.46875"/>
     <use xlink:href="#DejaVuSans-65" x="1469.332031"/>
     <use xlink:href="#DejaVuSans-6e" x="1530.855469"/>
     <use xlink:href="#DejaVuSans-74" x="1594.234375"/>
     <use xlink:href="#DejaVuSans-20" x="1633.443359"/>
     <use xlink:href="#DejaVuSans-69" x="1665.230469"/>
     <use xlink:href="#DejaVuSans-6d" x="1693.013672"/>
     <use xlink:href="#DejaVuSans-70" x="1790.425781"/>
     <use xlink:href="#DejaVuSans-6c" x="1853.902344"/>
     <use xlink:href="#DejaVuSans-65" x="1881.685547"/>
     <use xlink:href="#DejaVuSans-6d" x="1943.208984"/>
     <use xlink:href="#DejaVuSans-65" x="2040.621094"/>
     <use xlink:href="#DejaVuSans-6e" x="2102.144531"/>
     <use xlink:href="#DejaVuSans-74" x="2165.523438"/>
     <use xlink:href="#DejaVuSans-61" x="2204.732422"/>
     <use xlink:href="#DejaVuSans-74" x="2266.011719"/>
     <use xlink:href="#DejaVuSans-69" x="2305.220703"/>
     <use xlink:href="#DejaVuSans-6f" x="2333.003906"/>
     <use xlink:href="#DejaVuSans-6e" x="2394.185547"/>
    </g>
   </g>
   <g id="legend_1">
    <g id="patch_7">
     <path d="M 64.6 93.506375
L 136.089063 93.506375
Q 138.089063 93.506375 138.089063 91.506375
L 138.089063 48.472
Q 138.089063 46.472 136.089063 46.472
L 64.6 46.472
Q 62.6 46.472 62.6 48.472
L 62.6 91.506375
Q 62.6 93.506375 64.6 93.506375
z
" style="fill: #ffffff; opacity: 0.8; stroke: #cccccc; stroke-linejoin: miter"/>
    </g>
    <g id="line2d_20">
     <path d="M 66.6 54.570438
L 76.6 54.570438
L 86.6 54.570438
" style="fill: none; stroke: #1f77b4; stroke-width: 1.5; stroke-linecap: square"/>
    </g>
    <g id="text_12">
     <!-- difflib -->
     <g transform="translate(94.6 58.070438)scale(0.1 -0.1)">
      <use xlink:href="#DejaVuSans-64"/>
      <use xlink:href="#DejaVuSans-69" x="63.476562"/>
      <use xlink:href="#DejaVuSans-66" x="91.259766"/>
      <use xlink:href="#DejaVuSans-66" x="126.464844"/>
      <use xlink:href="#DejaVuSans-6c" x="161.669922"/>
      <use xlink:href="#DejaVuSans-69" x="189.453125"/>
      <use xlink:href="#DejaVuSans-62" x="217.236328"/>
     </g>
    </g>
    <g id="line2d_21">
     <path d="M 66.6 69.248563
L 76.6 69.248563
L 86.6 69.248563
" style="fill: none; stroke: #ff7f0e; stroke-width: 1.5; stroke-linecap: square"/>
    </g>
    <g id="text_13">
     <!-- cdifflib -->
     <g transform="translate(94.6 72.748563)scale(0.1 -0.1)">
      <use xlink:href="#DejaVuSans-63"/>
      <use xlink:href="#DejaVuSans-64" x="54.980469"/>
      <use xlink:href="#DejaVuSans-69" x="118.457031"/>
      <use xlink:href="#DejaVuSans-66" x="146.240234"/>
      <use xlink:href="#DejaVuSans-66" x="181.445312"/>
      <use xlink:href="#DejaVuSans-6c" x="216.650391"/>
      <use xlink:href="#DejaVuSans-69" x="244.433594"/>
      <use xlink:href="#DejaVuSans-62" x="272.216797"/>
     </g>
    </g>
    <g id="line2d_22">
     <path d="M 66.6 83.926688
L 76.6 83.926688
L 86.6 83.926688
" style="fill: none; stroke: #2ca02c; stroke-width: 1.5; stroke-linecap: square"/>
    </g>
    <g id="text_14">
     <!-- cydifflib -->
     <g transform="translate(94.6 87.426688)scale(0.1 -0.1)">
      <defs>
       <path id="DejaVuSans-79" d="M 2059 -325
Q 1816 -950 1584 -1140
Q 1353 -1331 966 -1331
L 506 -1331
L 506 -850
L 844 -850
Q 1081 -850 1212 -737
Q 1344 -625 1503 -206
L 1606 56
L 191 3500
L 800 3500
L 1894 763
L 2988 3500
L 3597 3500
L 2059 -325
z
" transform="scale(0.015625)"/>
      </defs>
      <use xlink:href="#DejaVuSans-63"/>
      <use xlink:href="#DejaVuSans-79" x="54.980469"/>
      <use xlink:href="#DejaVuSans-64" x="114.160156"/>
      <use xlink:href="#DejaVuSans-69" x="177.636719"/>
      <use xlink:href="#DejaVuSans-66" x="205.419922"/>
      <use xlink:href="#DejaVuSans-66" x="240.625"/>
      <use xlink:href="#DejaVuSans-6c" x="275.830078"/>
      <use xlink:href="#DejaVuSans-69" x="303.613281"/>
      <use xlink:href="#DejaVuSans-62" x="331.396484"/>
     </g>
    </g>
   </g>
  </g>
 </g>
 <defs>
  <clipPath id="p52f23a635f">
   <rect x="57.6" y="41.472" width="357.12" height="266.112"/>
  </clipPath>
 </defs>
</svg>
